<svg width="72" height="84" viewBox="0 0 72 84" fill="none" xmlns="http://www.w3.org/2000/svg">
<path d="M22.64 48.28C23.24 48.28 23.8 48.24 24.36 48.16C26.24 52.76 30.76 56 36 56C41.24 56 45.76 52.76 47.64 48.16C49.4171 48.4024 51.2255 48.2619 52.9439 47.7481C54.6623 47.2343 56.2509 46.359 57.6033 45.1809C58.9557 44.0028 60.0405 42.5491 60.785 40.9174C61.5295 39.2856 61.9165 37.5136 61.92 35.72C61.92 32.88 60.92 30.16 59.24 28C60.96 25.84 61.92 23.12 61.92 20.28C61.9165 18.4864 61.5295 16.7144 60.785 15.0826C60.0405 13.4509 58.9557 11.9972 57.6033 10.8191C56.2509 9.64099 54.6623 8.76567 52.9439 8.25186C51.2255 7.73805 49.4171 7.59762 47.64 7.84C45.76 3.24 41.24 0 36 0C30.76 0 26.24 3.24 24.36 7.84C22.5829 7.59762 20.7745 7.73805 19.0561 8.25186C17.3377 8.76567 15.7491 9.64099 14.3967 10.8191C13.0443 11.9972 11.9595 13.4509 11.215 15.0826C10.4705 16.7144 10.0835 18.4864 10.08 20.28C10.08 23.12 11.08 25.84 12.76 28C11.04 30.16 10.04 32.88 10.04 35.72C10.04 42.64 15.68 48.28 22.64 48.28ZM36 48C33.52 48 31.52 46.04 31.44 43.6L31.92 39.24C33.2 39.72 34.56 40 36 40C37.44 40 38.84 39.72 40.12 39.24L40.56 43.6C40.48 46.04 38.48 48 36 48ZM49.36 40.28C48.4 40.28 47.52 40 46.8 39.48L43.56 37.2C45.76 35.4 47.32 32.84 47.8 29.88L51.32 31.56C52.92 32.32 53.96 33.92 53.96 35.68C53.96 38.24 51.88 40.28 49.36 40.28ZM46.76 16.52C47.56 16 48.44 15.72 49.36 15.72C51.88 15.72 53.92 17.76 53.92 20.28C53.92 22.04 52.92 23.6 51.28 24.4L47.76 26.08C47.28 23.12 45.72 20.56 43.48 18.76L46.76 16.52ZM36 8C38.48 8 40.48 9.96 40.56 12.4L40.12 16.76C38.84 16.28 37.44 16 36 16C34.56 16 33.2 16.28 31.92 16.76L31.44 12.4C31.52 9.96 33.52 8 36 8ZM22.64 15.72C23.6 15.72 24.48 16 25.2 16.52L28.44 18.76C26.24 20.56 24.68 23.12 24.2 26.08L20.68 24.4C19.08 23.6 18.04 22.04 18.04 20.28C18.04 17.76 20.12 15.72 22.64 15.72ZM20.68 31.6L24.2 29.92C24.68 32.88 26.24 35.44 28.48 37.24L25.24 39.44C24.44 39.96 23.56 40.24 22.64 40.24C20.12 40.24 18.08 38.2 18.08 35.68C18.04 33.96 19.08 32.4 20.68 31.6ZM36 84C45.5478 84 54.7045 80.2072 61.4558 73.4558C68.2072 66.7045 72 57.5478 72 48C62.4522 48 53.2955 51.7928 46.5442 58.5442C39.7928 65.2955 36 74.4522 36 84ZM45.76 74.24C48.6 66.64 54.64 60.56 62.24 57.76C60.8285 61.5241 58.6275 64.9423 55.7849 67.7849C52.9423 70.6275 49.5241 72.8285 45.76 74.24ZM0 48C0 57.5478 3.79285 66.7045 10.5442 73.4558C17.2955 80.2072 26.4522 84 36 84C36 74.4522 32.2072 65.2955 25.4558 58.5442C18.7045 51.7928 9.54779 48 0 48ZM9.76 57.76C17.36 60.6 23.44 66.64 26.24 74.24C22.4759 72.8285 19.0577 70.6275 16.2151 67.7849C13.3725 64.9423 11.1715 61.5241 9.76 57.76Z" fill="#D0BB95"/>
</svg>
